HIERARCHY
ROOT Hips
{
	OFFSET 0.000000 71.427986 0.000000
	CHANNELS 6 Xposition Yposition Zposition Xrotation Yrotation Zrotation
	JOINT Pelvis
	{
		OFFSET 0.000000 0.000000 0.000000
		CHANNELS 3 Xrotation Yrotation Zrotation
		JOINT LeftUpLeg
		{
			OFFSET 6.797100 -2.508499 -1.318700
			CHANNELS 3 Xrotation Yrotation Zrotation
			JOINT LeftLeg
			{
				OFFSET 0.069008 -29.241863 0.690200
				CHANNELS 3 Xrotation Yrotation Zrotation
				JOINT LeftFoot
				{
					OFFSET -0.069008 -29.568123 -0.266800
					CHANNELS 3 Xrotation Yrotation Zrotation
					JOINT LeftToeBase
					{
						OFFSET 3.145500 -8.631000 16.059900
						CHANNELS 3 Xrotation Yrotation Zrotation
						End Site
						{
							OFFSET 0.000000 18.501587 0.000000
						}
					}
				}
			}
			JOINT Left_ShortSleeve
			{
				OFFSET 0.265923 -10.480953 1.153800
				CHANNELS 3 Xrotation Yrotation Zrotation
				End Site
				{
					OFFSET 1.725763 19.823879 0.000000
				}
			}
		}
		JOINT RightUpLeg
		{
			OFFSET -6.797100 -2.508499 -1.318700
			CHANNELS 3 Xrotation Yrotation Zrotation
			JOINT RightLeg
			{
				OFFSET -0.082453 -29.241932 0.688000
				CHANNELS 3 Xrotation Yrotation Zrotation
				JOINT RightFoot
				{
					OFFSET 0.082453 -29.568058 -0.264600
					CHANNELS 3 Xrotation Yrotation Zrotation
					JOINT RightToeBase
					{
						OFFSET -3.115300 -8.682800 16.113400
						CHANNELS 3 Xrotation Yrotation Zrotation
						End Site
						{
							OFFSET 0.000000 18.567114 0.000000
						}
					}
				}
			}
			JOINT Right_ShortSleeve
			{
				OFFSET -0.265923 -10.480953 1.153800
				CHANNELS 3 Xrotation Yrotation Zrotation
				End Site
				{
					OFFSET -1.725766 19.823910 0.000000
				}
			}
		}
	}
	JOINT Spine
	{
		OFFSET 0.000000 13.368103 0.470500
		CHANNELS 3 Xrotation Yrotation Zrotation
		JOINT Spine1
		{
			OFFSET 0.147000 13.837402 0.538800
			CHANNELS 3 Xrotation Yrotation Zrotation
			JOINT Spine2
			{
				OFFSET 0.168000 16.242897 -1.435500
				CHANNELS 3 Xrotation Yrotation Zrotation
				JOINT Neck
				{
					OFFSET 0.217200 18.631500 -1.679100
					CHANNELS 3 Xrotation Yrotation Zrotation
					JOINT Head
					{
						OFFSET 0.000000 6.599396 1.385900
						CHANNELS 3 Xrotation Yrotation Zrotation
						JOINT Hat
						{
							OFFSET -0.532200 27.220596 -10.096100
							CHANNELS 3 Xrotation Yrotation Zrotation
							End Site
							{
								OFFSET 0.000000 22.029861 0.000000
							}
						}
						JOINT HairD
						{
							OFFSET -10.777400 17.437393 -1.325900
							CHANNELS 3 Xrotation Yrotation Zrotation
							JOINT HairD1
							{
								OFFSET -3.290299 -11.051193 1.062200
								CHANNELS 3 Xrotation Yrotation Zrotation
								End Site
								{
									OFFSET 0.000000 11.579437 0.000000
								}
							}
						}
						JOINT HairB
						{
							OFFSET -10.777400 17.437393 1.467900
							CHANNELS 3 Xrotation Yrotation Zrotation
							JOINT HairB1
							{
								OFFSET -1.561200 -12.956299 3.590200
								CHANNELS 3 Xrotation Yrotation Zrotation
								End Site
								{
									OFFSET 0.000000 13.534866 0.000000
								}
							}
						}
						JOINT HairA
						{
							OFFSET 9.713100 17.437393 1.467900
							CHANNELS 3 Xrotation Yrotation Zrotation
							JOINT HairA1
							{
								OFFSET 1.561200 -12.956299 3.590200
								CHANNELS 3 Xrotation Yrotation Zrotation
								End Site
								{
									OFFSET 0.000000 13.534866 0.000000
								}
							}
						}
						JOINT HairC
						{
							OFFSET 9.713100 17.437393 -1.325900
							CHANNELS 3 Xrotation Yrotation Zrotation
							JOINT HairC1
							{
								OFFSET 3.290300 -11.051193 1.062200
								CHANNELS 3 Xrotation Yrotation Zrotation
								End Site
								{
									OFFSET 0.000000 11.579437 0.000000
								}
							}
						}
					}
				}
				JOINT LeftShoulder
				{
					OFFSET 5.101800 15.108002 -2.763700
					CHANNELS 3 Xrotation Yrotation Zrotation
					JOINT LeftArm
					{
						OFFSET 9.825497 2.506317 -1.597400
						CHANNELS 3 Xrotation Yrotation Zrotation
						JOINT LeftForeArm
						{
							OFFSET 21.966244 0.000000 0.000000
							CHANNELS 3 Xrotation Yrotation Zrotation
							JOINT LeftHand
							{
								OFFSET 33.879036 0.000000 0.000000
								CHANNELS 3 Xrotation Yrotation Zrotation
								JOINT LeftHandThumb1
								{
									OFFSET 6.715286 -2.359680 3.363841
									CHANNELS 3 Xrotation Yrotation Zrotation
									JOINT LeftHandThumb2
									{
										OFFSET 2.507072 -1.447464 1.447461
										CHANNELS 3 Xrotation Yrotation Zrotation
										JOINT LeftHandThumb3
										{
											OFFSET 2.898338 -1.673355 1.673357
											CHANNELS 3 Xrotation Yrotation Zrotation
											End Site
											{
												OFFSET -0.295959 3.727692 -0.131651
											}
										}
									}
								}
								JOINT LeftHandIndex1
								{
									OFFSET 14.190811 -0.254547 3.840278
									CHANNELS 3 Xrotation Yrotation Zrotation
									JOINT LeftHandIndex2
									{
										OFFSET 3.551727 0.000000 -0.000000
										CHANNELS 3 Xrotation Yrotation Zrotation
										JOINT LeftHandIndex3
										{
											OFFSET 2.894196 0.000000 0.000000
											CHANNELS 3 Xrotation Yrotation Zrotation
											End Site
											{
												OFFSET -1.000603 2.690872 0.366626
											}
										}
									}
								}
								JOINT LeftHandMiddle1
								{
									OFFSET 13.776489 0.000000 0.000000
									CHANNELS 3 Xrotation Yrotation Zrotation
									JOINT LeftHandMiddle2
									{
										OFFSET 3.438232 0.000000 0.000000
										CHANNELS 3 Xrotation Yrotation Zrotation
										JOINT LeftHandMiddle3
										{
											OFFSET 3.691551 0.000000 0.000000
											CHANNELS 3 Xrotation Yrotation Zrotation
											End Site
											{
												OFFSET -1.082298 3.499527 0.457670
											}
										}
									}
								}
								JOINT LeftHandRing1
								{
									OFFSET 13.966164 -0.268127 -3.067488
									CHANNELS 3 Xrotation Yrotation Zrotation
									JOINT LeftHandRing2
									{
										OFFSET 3.162567 0.000000 0.000000
										CHANNELS 3 Xrotation Yrotation Zrotation
										JOINT LeftHandRing3
										{
											OFFSET 3.324348 0.000000 0.000000
											CHANNELS 3 Xrotation Yrotation Zrotation
											End Site
											{
												OFFSET -0.861900 3.184998 0.405154
											}
										}
									}
								}
								JOINT LeftHandPinky1
								{
									OFFSET 13.131393 -0.168503 -5.746925
									CHANNELS 3 Xrotation Yrotation Zrotation
									JOINT LeftHandPinky2
									{
										OFFSET 2.849182 0.000000 0.000000
										CHANNELS 3 Xrotation Yrotation Zrotation
										JOINT LeftHandPinky3
										{
											OFFSET 2.805038 0.000000 0.000000
											CHANNELS 3 Xrotation Yrotation Zrotation
											End Site
											{
												OFFSET -0.882500 2.642609 0.325652
											}
										}
									}
								}
							}
							JOINT Left_Sleeve
							{
								OFFSET 6.592125 -0.646545 0.805568
								CHANNELS 3 Xrotation Yrotation Zrotation
								End Site
								{
									OFFSET -0.000179 20.275787 -0.000000
								}
							}
						}
					}
				}
				JOINT RightShoulder
				{
					OFFSET -5.731700 15.108002 -2.763700
					CHANNELS 3 Xrotation Yrotation Zrotation
					JOINT RightArm
					{
						OFFSET -9.825497 2.506317 -1.597400
						CHANNELS 3 Xrotation Yrotation Zrotation
						JOINT RightForeArm
						{
							OFFSET -21.966242 0.000000 0.000000
							CHANNELS 3 Xrotation Yrotation Zrotation
							JOINT RightHand
							{
								OFFSET -33.879032 0.000000 0.000000
								CHANNELS 3 Xrotation Yrotation Zrotation
								JOINT RightHandThumb1
								{
									OFFSET -6.715286 -2.359680 3.363841
									CHANNELS 3 Xrotation Yrotation Zrotation
									JOINT RightHandThumb2
									{
										OFFSET -2.507072 -1.447464 1.447461
										CHANNELS 3 Xrotation Yrotation Zrotation
										JOINT RightHandThumb3
										{
											OFFSET -2.898338 -1.673355 1.673357
											CHANNELS 3 Xrotation Yrotation Zrotation
											End Site
											{
												OFFSET 0.295959 3.727692 -0.131651
											}
										}
									}
								}
								JOINT RightHandIndex1
								{
									OFFSET -14.190811 -0.254547 3.840278
									CHANNELS 3 Xrotation Yrotation Zrotation
									JOINT RightHandIndex2
									{
										OFFSET -3.551727 0.000000 -0.000000
										CHANNELS 3 Xrotation Yrotation Zrotation
										JOINT RightHandIndex3
										{
											OFFSET -2.894196 0.000000 0.000000
											CHANNELS 3 Xrotation Yrotation Zrotation
											End Site
											{
												OFFSET 1.000603 2.690872 0.366626
											}
										}
									}
								}
								JOINT RightHandMiddle1
								{
									OFFSET -13.776489 0.000000 0.000000
									CHANNELS 3 Xrotation Yrotation Zrotation
									JOINT RightHandMiddle2
									{
										OFFSET -3.438232 0.000000 0.000000
										CHANNELS 3 Xrotation Yrotation Zrotation
										JOINT RightHandMiddle3
										{
											OFFSET -3.691551 0.000000 0.000000
											CHANNELS 3 Xrotation Yrotation Zrotation
											End Site
											{
												OFFSET 1.082298 3.499527 0.457670
											}
										}
									}
								}
								JOINT RightHandRing1
								{
									OFFSET -13.966164 -0.268127 -3.067488
									CHANNELS 3 Xrotation Yrotation Zrotation
									JOINT RightHandRing2
									{
										OFFSET -3.162567 0.000000 0.000000
										CHANNELS 3 Xrotation Yrotation Zrotation
										JOINT RightHandRing3
										{
											OFFSET -3.324348 0.000000 0.000000
											CHANNELS 3 Xrotation Yrotation Zrotation
											End Site
											{
												OFFSET 0.861900 3.184998 0.405154
											}
										}
									}
								}
								JOINT RightHandPinky1
								{
									OFFSET -13.131393 -0.168503 -5.746925
									CHANNELS 3 Xrotation Yrotation Zrotation
									JOINT RightHandPinky2
									{
										OFFSET -2.849182 0.000000 0.000000
										CHANNELS 3 Xrotation Yrotation Zrotation
										JOINT RightHandPinky3
										{
											OFFSET -2.805038 0.000000 0.000000
											CHANNELS 3 Xrotation Yrotation Zrotation
											End Site
											{
												OFFSET 0.882500 2.642609 0.325652
											}
										}
									}
								}
							}
							JOINT Right_Sleeve
							{
								OFFSET -6.592125 -0.646545 0.805568
								CHANNELS 3 Xrotation Yrotation Zrotation
								End Site
								{
									OFFSET 0.000179 20.275787 -0.000000
								}
							}
						}
					}
				}
				JOINT Bind_Right_JacketString
				{
					OFFSET -3.534800 11.969597 7.200700
					CHANNELS 3 Xrotation Yrotation Zrotation
					JOINT Bind_Right_JacketString1
					{
						OFFSET -0.319900 -6.102600 2.794100
						CHANNELS 3 Xrotation Yrotation Zrotation
						End Site
						{
							OFFSET 0.000000 6.719452 0.000000
						}
					}
				}
				JOINT Bind_Left_JacketString
				{
					OFFSET 2.904800 11.969597 7.200700
					CHANNELS 3 Xrotation Yrotation Zrotation
					JOINT Bind_Left_JacketString1
					{
						OFFSET 0.364800 -5.904503 3.186800
						CHANNELS 3 Xrotation Yrotation Zrotation
						End Site
						{
							OFFSET 0.000000 6.719513 0.000000
						}
					}
				}
				JOINT HairE
				{
					OFFSET 5.915200 17.612701 -11.592200
					CHANNELS 3 Xrotation Yrotation Zrotation
					JOINT HairE1
					{
						OFFSET 0.289200 -7.171898 -1.284500
						CHANNELS 3 Xrotation Yrotation Zrotation
						End Site
						{
							OFFSET 0.000000 7.291756 0.000000
						}
					}
				}
				JOINT HairF
				{
					OFFSET -0.864800 17.612701 -11.592200
					CHANNELS 3 Xrotation Yrotation Zrotation
					JOINT HairF1
					{
						OFFSET 0.000000 -14.087097 -2.127501
						CHANNELS 3 Xrotation Yrotation Zrotation
						End Site
						{
							OFFSET 0.000000 14.246841 0.000000
						}
					}
				}
				JOINT HairG
				{
					OFFSET -8.087700 17.612701 -11.592200
					CHANNELS 3 Xrotation Yrotation Zrotation
					JOINT HairG1
					{
						OFFSET -0.293600 -6.081398 -0.910100
						CHANNELS 3 Xrotation Yrotation Zrotation
						End Site
						{
							OFFSET 0.000000 6.156120 0.000000
						}
					}
				}
			}
		}
	}
	JOINT Pouch
	{
		OFFSET 0.000000 4.394501 10.847300
		CHANNELS 3 Xrotation Yrotation Zrotation
		End Site
		{
			OFFSET 0.000000 21.880577 0.000000
		}
	}
	JOINT Bag
	{
		OFFSET -13.229000 4.813004 -0.593300
		CHANNELS 3 Xrotation Yrotation Zrotation
		End Site
		{
			OFFSET 0.000000 21.880577 0.000000
		}
	}
	JOINT OccupyGuyFacialAnim_Joint
	{
		OFFSET 1.000000 -70.206398 -1.655000
		CHANNELS 3 Xrotation Yrotation Zrotation
		End Site
		{
			OFFSET 0.000000 21.880577 0.000000
		}
	}
}
MOTION
Frames: 4
Frame Time: 0.033333
-2.803445 49.459766 -49.705048 -55.358594 -13.752338 -8.552052 -0.000000 0.000001 0.000002 7.232975 3.027285 17.432687 92.245154 44.015136 11.610696 -21.730921 2.465490 -12.547394 -0.000000 0.000002 -0.000003 0.000001 0.000001 -0.000000 -12.654718 17.256130 -12.331264 81.340511 -15.921951 -16.574262 -9.374262 -1.882869 16.528689 0.000000 0.000000 0.000003 0.000001 0.000000 -0.000000 -11.735906 -20.366567 3.246241 0.569977 -5.376733 1.644135 0.559144 -5.370518 1.625037 3.102194 -2.062734 -0.622056 -4.280387 -34.833077 5.215742 -0.000001 0.000000 -0.000002 -0.000001 0.000000 -0.000002 -0.000001 0.000000 -0.000001 -0.000001 0.000000 -0.000002 -0.000001 0.000001 -0.000002 -0.000001 0.000000 -0.000002 -0.000001 0.000001 -0.000002 -0.000001 0.000000 -0.000002 -0.000001 0.000000 -0.000002 -0.362855 -17.859831 -17.119171 -25.173255 -17.039655 -18.374812 51.714859 -12.857689 4.173086 -5.537505 -28.658470 7.558317 0.626566 5.419163 2.939365 4.330089 -0.661781 -3.639588 -0.000003 -0.000000 0.000005 -11.214675 -7.851922 -13.475844 0.126584 2.748749 -20.406548 -0.000001 0.000000 -0.000000 -0.959023 -2.230419 -0.234625 1.950798 6.449948 -53.928090 0.000003 0.000003 -0.000002 -2.626876 11.796491 17.615340 -0.019143 3.425239 -25.377880 -0.000002 0.000003 -0.000004 3.613652 25.110948 3.251901 0.229732 3.655773 -26.762435 -0.000003 0.000001 0.000003 -0.000000 0.000001 -0.000002 0.681741 2.186462 17.746585 -15.238258 9.251595 41.994284 57.264286 15.154810 -7.815716 -11.536971 19.535439 16.151090 -7.743893 22.753121 -16.040385 6.934149 -44.978817 -9.137367 -0.000001 -0.000002 -0.000003 0.371969 -3.723772 -20.941329 1.864470 -5.469469 44.606244 -0.000001 -0.000000 0.000002 -0.739341 -3.087174 -14.591164 2.582730 -6.730573 59.796332 -0.000001 0.000001 -0.000001 -0.206981 -8.038014 15.475325 -0.714945 -0.996949 6.584936 0.000001 -0.000001 -0.000002 0.525316 -10.068857 29.061048 2.824782 -6.599692 55.817320 0.000001 0.000000 0.000002 0.000002 -0.000001 -0.000000 0.000001 -0.000000 -0.000002 0.000001 0.000001 -0.000000 0.000001 -0.000000 -0.000001 0.000001 -0.000000 -0.000001 0.000001 -0.000000 -0.000002 0.000001 0.000001 -0.000000 0.000001 -0.000000 -0.000001 0.000001 -0.000000 -0.000001 0.000001 -0.000000 -0.000002 0.000001 0.000001 -0.000000 -0.000000 0.000001 0.000002 -0.000000 0.000001 0.000002 -0.000000 0.000001 0.000002 
-3.126450 47.209232 -51.123905 -59.547789 -14.939651 -9.192218 0.000002 -0.000001 -0.000000 7.159643 1.142188 16.654697 97.218242 45.121637 10.600223 -19.976900 1.835820 -10.405862 0.000000 0.000002 -0.000002 0.000003 -0.000001 0.000001 -15.479003 19.637719 -11.625596 86.941471 -15.277298 -14.936092 -8.923254 -1.444216 13.407886 0.000001 -0.000002 0.000001 0.000000 -0.000000 -0.000000 -12.186652 -19.678436 2.922991 0.288937 -5.213792 1.517331 0.279752 -5.214666 1.482972 3.034223 -1.650242 -1.224241 -6.537672 -30.290823 2.051813 0.000000 -0.000000 -0.000001 0.000000 -0.000000 -0.000001 0.000000 -0.000000 -0.000000 0.000000 -0.000000 -0.000000 0.000000 0.000001 -0.000000 0.000000 -0.000000 -0.000000 0.000000 0.000001 -0.000000 0.000000 -0.000000 -0.000001 0.000000 -0.000000 -0.000001 0.004276 -16.334648 -14.727568 -27.738677 -20.768047 -19.275342 45.971630 -14.418039 5.186756 -7.042706 -29.580508 2.429234 0.626566 5.419162 2.939370 4.330113 -0.661775 -3.639583 -0.000001 0.000001 0.000002 -11.214677 -7.851914 -13.475846 0.126568 2.748745 -20.406558 -0.000004 -0.000001 -0.000000 -0.959025 -2.230418 -0.234618 1.950780 6.449953 -53.928083 0.000006 -0.000003 0.000004 -2.626875 11.796497 17.615353 -0.019145 3.425238 -25.377879 -0.000003 0.000000 0.000002 3.613643 25.110945 3.251908 0.229731 3.655764 -26.762450 -0.000000 0.000000 0.000003 -0.000001 -0.000003 -0.000002 0.612449 3.429212 17.172528 -18.948847 16.146907 43.029953 62.254032 16.232245 -9.887360 -12.604659 21.694646 19.394112 -7.743912 22.753124 -16.040373 6.934138 -44.978831 -9.137378 -0.000001 -0.000001 -0.000001 0.371962 -3.723754 -20.941340 1.864489 -5.469510 44.606244 -0.000001 0.000001 0.000002 -0.739346 -3.087168 -14.591159 2.582732 -6.730571 59.796325 0.000000 -0.000002 -0.000001 -0.206992 -8.038018 15.475327 -0.714926 -0.996939 6.584954 -0.000001 -0.000000 -0.000001 0.525322 -10.068854 29.061065 2.824794 -6.599675 55.817317 -0.000001 0.000006 -0.000002 0.000004 -0.000002 -0.000001 0.000000 0.000001 0.000001 0.000002 0.000002 -0.000000 0.000000 0.000001 -0.000000 0.000000 0.000001 -0.000000 0.000000 0.000001 0.000001 0.000002 0.000002 -0.000000 0.000000 0.000001 -0.000000 0.000000 0.000001 -0.000000 0.000000 0.000001 0.000001 0.000002 0.000002 -0.000000 0.000002 -0.000001 -0.000000 0.000002 -0.000001 -0.000000 0.000002 -0.000001 -0.000000 
-3.551865 44.352898 -52.769962 -63.709826 -17.033045 -10.449751 0.000000 0.000001 0.000000 6.451290 -0.958391 16.275912 103.154435 45.585263 9.015187 -17.744854 1.222619 -8.132769 0.000000 0.000003 0.000003 0.000001 0.000000 -0.000000 -20.940815 22.521695 -10.077084 93.349493 -14.030121 -12.582994 -8.120415 -0.885206 9.217419 0.000001 0.000002 0.000001 -0.000000 0.000002 -0.000006 -12.071912 -18.593324 3.101808 0.131650 -4.924313 1.424960 0.120406 -4.926822 1.384873 3.175594 -1.304798 -1.624254 -6.890697 -26.324492 0.615821 0.000000 0.000001 -0.000000 0.000000 0.000001 -0.000000 0.000000 0.000001 -0.000000 0.000000 0.000001 0.000001 -0.000000 0.000001 -0.000000 0.000000 0.000001 0.000001 -0.000000 0.000001 -0.000000 0.000000 0.000001 -0.000000 0.000000 0.000001 -0.000000 0.313052 -14.135206 -12.646841 -30.131106 -24.001724 -18.784656 39.911746 -19.646117 6.901389 -8.655090 -28.294060 -2.851434 0.626568 5.419174 2.939370 4.330083 -0.661771 -3.639576 -0.000000 0.000004 0.000001 -11.214678 -7.851933 -13.475851 0.126562 2.748755 -20.406554 0.000002 -0.000001 -0.000002 -0.959051 -2.230412 -0.234629 1.950784 6.449952 -53.928100 0.000004 -0.000002 0.000002 -2.626882 11.796508 17.615364 -0.019145 3.425219 -25.377896 -0.000004 0.000002 -0.000002 3.613617 25.110953 3.251925 0.229745 3.655790 -26.762448 -0.000001 0.000000 -0.000001 0.000001 -0.000000 0.000000 0.402601 6.072620 16.805120 -23.821101 23.566690 44.211333 65.641547 16.382692 -10.974319 -13.020656 23.393611 19.860156 -7.743888 22.753115 -16.040382 6.934145 -44.978821 -9.137355 0.000000 0.000001 -0.000001 0.371977 -3.723781 -20.941336 1.864491 -5.469490 44.606251 0.000003 0.000000 -0.000001 -0.739322 -3.087170 -14.591138 2.582717 -6.730561 59.796339 -0.000000 -0.000001 0.000001 -0.206978 -8.038021 15.475342 -0.714933 -0.996942 6.584940 0.000001 0.000000 -0.000002 0.525337 -10.068874 29.061068 2.824785 -6.599668 55.817317 -0.000002 0.000001 0.000001 0.000001 0.000001 -0.000001 -0.000000 -0.000000 0.000001 -0.000001 0.000001 -0.000002 -0.000000 -0.000000 0.000001 -0.000000 -0.000000 0.000001 -0.000000 -0.000000 0.000001 -0.000001 0.000001 -0.000001 -0.000000 -0.000000 0.000001 -0.000000 -0.000000 0.000001 -0.000000 -0.000000 0.000001 -0.000001 0.000001 -0.000001 0.000000 0.000001 0.000000 0.000000 0.000001 0.000000 0.000000 0.000001 0.000000 
-4.128525 40.910736 -54.570267 -67.690200 -19.824604 -12.034662 -0.000001 0.000000 -0.000001 5.289378 -3.665692 16.348218 109.660074 44.634070 7.013015 -14.974061 0.823376 -6.673202 0.000000 -0.000001 -0.000002 -0.000001 0.000000 0.000001 -28.955702 25.335197 -7.970766 99.966321 -12.065351 -9.878701 -7.236246 -0.416788 5.091895 -0.000001 -0.000001 0.000001 -0.000000 0.000001 -0.000003 -12.072678 -17.280879 3.287635 0.055832 -4.568484 1.344820 0.043170 -4.571202 1.304262 3.507612 -1.060400 -1.810980 -5.972320 -23.232769 0.098227 -0.000000 0.000001 -0.000000 -0.000000 0.000001 -0.000000 -0.000000 0.000001 -0.000000 -0.000000 0.000001 -0.000000 -0.000002 0.000001 -0.000000 -0.000000 0.000001 -0.000000 -0.000002 0.000001 -0.000000 -0.000000 0.000001 -0.000000 -0.000000 0.000001 -0.000000 0.536599 -11.942298 -10.630256 -31.985752 -26.337326 -16.858297 32.759483 -27.028525 7.340442 -9.057809 -27.415350 -4.068430 0.626567 5.419161 2.939369 4.330112 -0.661793 -3.639586 -0.000003 -0.000002 -0.000000 -11.214669 -7.851933 -13.475831 0.126572 2.748746 -20.406558 0.000002 -0.000001 -0.000000 -0.959018 -2.230417 -0.234617 1.950783 6.449929 -53.928093 0.000001 0.000001 -0.000001 -2.626871 11.796492 17.615357 -0.019148 3.425241 -25.377884 0.000001 -0.000001 -0.000004 3.613646 25.110962 3.251906 0.229717 3.655761 -26.762442 -0.000000 -0.000003 0.000002 -0.000000 -0.000002 -0.000001 0.242904 9.031781 15.393209 -30.669844 31.993446 47.457428 65.878008 14.407984 -9.255267 -12.456113 25.462167 16.650944 -7.743895 22.753119 -16.040388 6.934160 -44.978828 -9.137352 0.000000 -0.000007 0.000001 0.371985 -3.723776 -20.941328 1.864472 -5.469484 44.606234 0.000002 -0.000001 -0.000002 -0.739329 -3.087156 -14.591152 2.582724 -6.730565 59.796332 0.000002 -0.000001 -0.000001 -0.206971 -8.038027 15.475327 -0.714941 -0.996921 6.584957 0.000002 0.000000 0.000003 0.525332 -10.068848 29.061058 2.824781 -6.599662 55.817317 -0.000000 0.000001 -0.000001 0.000000 -0.000001 0.000002 0.000000 0.000001 0.000002 0.000000 0.000001 -0.000000 0.000000 0.000001 0.000001 0.000000 0.000001 0.000001 0.000000 0.000001 0.000002 0.000000 0.000001 -0.000000 0.000000 0.000001 0.000001 0.000000 0.000001 0.000001 0.000000 0.000001 0.000002 0.000000 0.000001 -0.000000 -0.000001 0.000000 -0.000001 -0.000001 0.000000 -0.000001 -0.000001 0.000000 -0.000001 
